# xmcd CD database file
#
# Track frame offsets:
#	150
#	41155
#	67005
#	98307
#	117867
#	143502
#	191029
#	212046
#
# Disc length: 3132 seconds
#
# Revision: 0
# Processed by: cddbd v1.5.2PL0 Copyright (c) Steve Scherf et al.
# Submitted via: CDex 1.50
#
DISCID=6d0c3a08
DTITLE=Vangelis - Al Hombre Desconocido
DYEAR=1982
DGENRE=New Age
TTITLE0=To The Unknown Man
TTITLE1=Pulstar
TTITLE2=Spiral
TTITLE3=Albedo 0.39
TTITLE4=Aries
TTITLE5=Beauborg Excerpt
TTITLE6=Bacchanale
TTITLE7=So Long Ago, So Clear
EXTD=YEAR: 1982
EXTT0=
EXTT1=
EXTT2=
EXTT3=
EXTT4=
EXTT5=
EXTT6=
EXTT7=
PLAYORDER=
